<svg width="50" height="50" viewBox="0 0 50 50" fill="none" xmlns="http://www.w3.org/2000/svg">
<path d="M34.5392 25.6176C34.5022 21.1919 38.1614 19.0409 38.3221 18.942C36.2452 15.9256 33.031 15.5052 31.9061 15.4682C29.2111 15.1838 26.5903 17.0876 25.2181 17.0876C23.8211 17.0876 21.6948 15.5052 19.4201 15.5423C16.4903 15.5918 13.7335 17.2854 12.2376 19.931C9.13468 25.3086 11.4464 33.2205 14.4257 37.572C15.9216 39.6983 17.6523 42.0842 19.9393 41.9977C22.1646 41.9112 23.0052 40.576 25.6878 40.576C28.3581 40.576 29.1369 41.9977 31.461 41.9483C33.8593 41.9112 35.3552 39.8096 36.8016 37.6585C38.5199 35.2232 39.2122 32.8125 39.2369 32.6889C39.1751 32.6641 34.5887 30.9087 34.5392 25.6176Z" fill="#4A4848"/>
<path d="M30.151 12.6125C31.3502 11.1167 32.1661 9.07687 31.9436 7C30.2128 7.07417 28.0371 8.19915 26.7885 9.67026C25.6882 10.9683 24.6993 13.0823 24.9465 15.0726C26.8997 15.2209 28.9024 14.0836 30.151 12.6125Z" fill="#4A4848"/>
</svg>
