<svg width="24" height="24" viewBox="0 0 24 24" fill="none" xmlns="http://www.w3.org/2000/svg">
<path d="M18 8.00006C18 6.40876 17.3679 4.88264 16.2426 3.75742C15.1174 2.6322 13.5913 2.00006 12 2.00006C10.4087 2.00006 8.88258 2.6322 7.75736 3.75742C6.63214 4.88264 6 6.40876 6 8.00006C6 15.0001 3 17.0001 3 17.0001H21C21 17.0001 18 15.0001 18 8.00006Z" stroke="#4D4B57" stroke-width="2" stroke-linecap="round" stroke-linejoin="round"/>
<path d="M13.73 21C13.5542 21.3031 13.3019 21.5547 12.9982 21.7295C12.6946 21.9044 12.3504 21.9965 12 21.9965C11.6496 21.9965 11.3054 21.9044 11.0018 21.7295C10.6982 21.5547 10.4458 21.3031 10.27 21" stroke="#4D4B57" stroke-width="2" stroke-linecap="round" stroke-linejoin="round"/>
</svg>
